<mxfile host="app.diagrams.net" modified="2023-11-27T18:15:32.285Z" agent="Mozilla/5.0 (Windows NT 10.0; Win64; x64) AppleWebKit/537.36 (KHTML, like Gecko) Chrome/118.0.0.0 Safari/537.36 OPR/104.0.0.0" version="22.1.4" etag="lgdmj9PD0VmXKMe1_dnU" type="github">
  <diagram name="Page-1" id="b5fvQirD6sXGxpW9rxOp">
    <mxGraphModel>
      <root>
        <mxCell id="0" />
        <mxCell id="1" parent="0" />
      </root>
    </mxGraphModel>
  </diagram>
</mxfile>
